<svg xmlns="http://www.w3.org/2000/svg" viewBox="0 0 667.49 134.81"><defs><style>.cls-1{isolation:isolate;}.cls-2{fill:#bedbe6;}.cls-3{fill:#9dc1e1;}.cls-4{mix-blend-mode:multiply;}.cls-5{fill:#b5d8f2;}</style></defs><title>Ativo 2</title><g class="cls-1"><g id="Camada_2" data-name="Camada 2"><g id="Camada_1-2" data-name="Camada 1"><path class="cls-2" d="M14.35,5.3h5.84A20.35,20.35,0,0,1,28,6.86a20.56,20.56,0,0,1,6.57,4.48,21.24,21.24,0,0,1,4.28,6.22,19.15,19.15,0,0,1,1.46,7.51,17.86,17.86,0,0,1-.78,4.7,24.7,24.7,0,0,1-2.3,5.37l-1.72,3.08,3.24,1.46c1.08.53,2.15,1.12,3.24,1.78a18.32,18.32,0,0,1,2.29,1.82,24.38,24.38,0,0,1,5,7.57,23.6,23.6,0,0,1,0,17.69A22.78,22.78,0,0,1,28,82.89H0V5.3Zm-4.07,32,3.39-.15,5.11-.32c.49,0,.93-.05,1.31-.05l.21,0a13.41,13.41,0,0,0,3.81-.94,12.32,12.32,0,0,0,3.39-2.51,11.51,11.51,0,0,0,2.24-3.44,10.33,10.33,0,0,0,.79-4.07,10.22,10.22,0,0,0-.79-4,12.32,12.32,0,0,0-2.24-3.44A11.81,11.81,0,0,0,24.16,16a10.26,10.26,0,0,0-4-.78H10.28v22Zm0,35.69H28a13.16,13.16,0,0,0,5-1,12.3,12.3,0,0,0,4.23-2.86A13.19,13.19,0,0,0,40,64.78a14.11,14.11,0,0,0,1-5.12,13.63,13.63,0,0,0-1-5,13.85,13.85,0,0,0-2.87-4.39A14.42,14.42,0,0,0,33,47.35a13,13,0,0,0-4.85-1.3c-1.78-.11-3.47-.15-5.09-.13s-3.25,0-4.88.08l-2.37,0-2.28,0H10.28V73Z"/><path class="cls-2" d="M123.75,5.14V15.47H90V39H115.3V49.28H90V72.77h33.76V83.1H79.61v-78Z"/><path class="cls-2" d="M203.1,57.79V5.14h10.38V84.3l-50.66-54V83.1H152.43V4.51Z"/><path class="cls-3" d="M329.74,15.87a40.61,40.61,0,0,0-12.85-8.79,41.46,41.46,0,0,0-30.44,0,41.43,41.43,0,0,0-21.52,21.67A39,39,0,0,0,262,43.94a38.79,38.79,0,0,0,2.89,15.16A38,38,0,0,0,273.62,72a38.92,38.92,0,0,0,12.84,8.73,41.4,41.4,0,0,0,30.42,0A39.67,39.67,0,0,0,329.74,72a39.91,39.91,0,0,0,8.77-43.31A40,40,0,0,0,329.74,15.87Zm-28.05,3.41a24.29,24.29,0,0,1,9.32,1.8,26.15,26.15,0,0,1,8,5.39,27,27,0,0,1,5.41,8,23.86,23.86,0,0,1,1.85,9.38,23.59,23.59,0,0,1-1.86,9.41A25.59,25.59,0,0,1,311,66.54a25.35,25.35,0,0,1-18.82,0,22.63,22.63,0,0,1-7.87-5.37,23.43,23.43,0,0,1-5.41-7.92,24.33,24.33,0,0,1-1.76-9.4,24.73,24.73,0,0,1,1.76-9.4,24.48,24.48,0,0,1,5.43-7.94,23.33,23.33,0,0,1,17.32-7.22Z"/><path class="cls-3" d="M408,54.57l.47-.19a21.38,21.38,0,0,0,5.09-2.66,19.26,19.26,0,0,0,4.27-4.53,30,30,0,0,0,3.64-6.94,23.36,23.36,0,0,0,1.28-7.84V30.35a23.94,23.94,0,0,0-1.78-9.62,27,27,0,0,0-5.81-8.09A28.1,28.1,0,0,0,406,6.85a30.56,30.56,0,0,0-11.26-2.09H369.38L369.43,83h15.06V57.41h6.75L407.87,83h18.41L408.26,55ZM384.44,19.62h9.35a18.5,18.5,0,0,1,5.86.9,11.06,11.06,0,0,1,3.92,2.11l.28.29a13.37,13.37,0,0,1,2.56,3.57,12,12,0,0,1,.76,4.34,11.84,11.84,0,0,1-.77,4.54,10.78,10.78,0,0,1-2.54,3.77,12.35,12.35,0,0,1-3.37,2.54,9.53,9.53,0,0,1-3.15.73H391l-6.56,0Z"/><path class="cls-3" d="M447.72,83h16.12l5.4-12h27.61l5.4,12h16.12L483,0ZM491,57.86H475.07c1.48-3.55,3-7.31,4.46-11.22,1.18-3.08,2.36-6.07,3.54-8.94,1.16,2.85,2.32,5.84,3.48,8.93C488,50.52,489.51,54.28,491,57.86Z"/><polygon class="cls-3" points="557.89 4.76 542.88 4.76 542.88 82.97 589.63 82.97 589.63 68.1 557.89 68.1 557.89 4.76"/><polygon class="cls-3" points="664.31 19.57 664.31 4.61 617.56 4.61 617.56 83.17 664.31 83.17 664.31 68.21 632.57 68.21 632.57 51.37 656.37 51.37 656.37 36.41 632.57 36.41 632.57 19.57 664.31 19.57"/><g class="cls-4"><path class="cls-5" d="M.14,115.48a6.43,6.43,0,0,1,.53-2.67,5.6,5.6,0,0,1,1.38-1.92A6.13,6.13,0,0,1,4,109.75a6.23,6.23,0,0,1,2.16-.38,6.31,6.31,0,0,1,2.16.38,6.08,6.08,0,0,1,1.93,1.14,5.5,5.5,0,0,1,1.39,1.92,6.43,6.43,0,0,1,.53,2.67v13.21a6.39,6.39,0,0,1-.53,2.69,5.51,5.51,0,0,1-1.39,1.9,5.9,5.9,0,0,1-1.93,1.14,6.32,6.32,0,0,1-2.16.39A6.24,6.24,0,0,1,4,134.42a6,6,0,0,1-1.94-1.14,5.62,5.62,0,0,1-1.38-1.9,6.39,6.39,0,0,1-.53-2.69Zm3.59,13.21a2.39,2.39,0,0,0,.71,1.92,2.54,2.54,0,0,0,1.71.61,2.54,2.54,0,0,0,1.7-.61,2.39,2.39,0,0,0,.72-1.92V115.48a2.39,2.39,0,0,0-.72-1.92,2.54,2.54,0,0,0-1.7-.61,2.54,2.54,0,0,0-1.71.61,2.39,2.39,0,0,0-.71,1.92Z"/><path class="cls-5" d="M29.73,109.57H35a6.12,6.12,0,0,1,4.67,1.71A6.63,6.63,0,0,1,41.33,116v11.71c0,2.34-.57,4.06-1.71,5.18a6.72,6.72,0,0,1-4.9,1.67h-5Zm3.59,21.65H35a2.66,2.66,0,0,0,2.14-.75,3.7,3.7,0,0,0,.63-2.38V116a3.84,3.84,0,0,0-.59-2.28A2.56,2.56,0,0,0,35,113H33.32Z"/><path class="cls-5" d="M58.9,115.48a6.43,6.43,0,0,1,.53-2.67,5.5,5.5,0,0,1,1.39-1.92,6,6,0,0,1,1.93-1.14,6.33,6.33,0,0,1,4.32,0A6.13,6.13,0,0,1,69,110.89a5.6,5.6,0,0,1,1.38,1.92,6.43,6.43,0,0,1,.53,2.67v13.21a6.39,6.39,0,0,1-.53,2.69,5.62,5.62,0,0,1-1.38,1.9,6,6,0,0,1-1.94,1.14,6.18,6.18,0,0,1-4.32,0,5.8,5.8,0,0,1-1.93-1.14,5.51,5.51,0,0,1-1.39-1.9,6.39,6.39,0,0,1-.53-2.69Zm3.58,13.21a2.39,2.39,0,0,0,.73,1.92,2.67,2.67,0,0,0,3.4,0,2.39,2.39,0,0,0,.72-1.92V115.48a2.39,2.39,0,0,0-.72-1.92,2.67,2.67,0,0,0-3.4,0,2.39,2.39,0,0,0-.73,1.92Z"/><path class="cls-5" d="M88.35,109.57H91.8l5.41,15.08h.07V109.57h3.58v25H97.49l-5.48-15h-.07v15H88.35Z"/><path class="cls-5" d="M120.86,113h-4.15v-3.38h11.88V113h-4.15V134.6h-3.58Z"/><path class="cls-5" d="M144,115.48a6.43,6.43,0,0,1,.53-2.67,5.6,5.6,0,0,1,1.38-1.92,6.13,6.13,0,0,1,1.94-1.14,6.23,6.23,0,0,1,2.16-.38,6.31,6.31,0,0,1,2.16.38,6.08,6.08,0,0,1,1.93,1.14,5.5,5.5,0,0,1,1.39,1.92,6.43,6.43,0,0,1,.52,2.67v13.21a6.39,6.39,0,0,1-.52,2.69,5.51,5.51,0,0,1-1.39,1.9,5.9,5.9,0,0,1-1.93,1.14,6.32,6.32,0,0,1-2.16.39,6.24,6.24,0,0,1-2.16-.39,6,6,0,0,1-1.94-1.14,5.62,5.62,0,0,1-1.38-1.9,6.39,6.39,0,0,1-.53-2.69Zm3.58,13.21a2.39,2.39,0,0,0,.72,1.92,2.69,2.69,0,0,0,3.41,0,2.39,2.39,0,0,0,.72-1.92V115.48a2.39,2.39,0,0,0-.72-1.92,2.69,2.69,0,0,0-3.41,0,2.39,2.39,0,0,0-.72,1.92Z"/><path class="cls-5" d="M173.54,109.57h3.58V131h7.1v3.59H173.54Z"/><path class="cls-5" d="M200.74,115.48a6.43,6.43,0,0,1,.53-2.67,5.5,5.5,0,0,1,1.39-1.92,6,6,0,0,1,1.93-1.14,6.33,6.33,0,0,1,4.32,0,6.13,6.13,0,0,1,1.94,1.14,5.76,5.76,0,0,1,1.39,1.92,6.43,6.43,0,0,1,.52,2.67v13.21a6.39,6.39,0,0,1-.52,2.69,5.78,5.78,0,0,1-1.39,1.9,6,6,0,0,1-1.94,1.14,6.18,6.18,0,0,1-4.32,0,5.8,5.8,0,0,1-1.93-1.14,5.51,5.51,0,0,1-1.39-1.9,6.39,6.39,0,0,1-.53-2.69Zm3.58,13.21a2.39,2.39,0,0,0,.73,1.92,2.67,2.67,0,0,0,3.4,0,2.36,2.36,0,0,0,.73-1.92V115.48a2.36,2.36,0,0,0-.73-1.92,2.67,2.67,0,0,0-3.4,0,2.39,2.39,0,0,0-.73,1.92Z"/><path class="cls-5" d="M230.12,115.48a6.43,6.43,0,0,1,.53-2.67,5.5,5.5,0,0,1,1.39-1.92,6,6,0,0,1,1.93-1.14,6.27,6.27,0,0,1,2.16-.38,6.36,6.36,0,0,1,2.17.38,6.19,6.19,0,0,1,1.93,1.14,5.76,5.76,0,0,1,1.39,1.92,6.43,6.43,0,0,1,.52,2.67v1.27h-3.58v-1.27a2.36,2.36,0,0,0-.73-1.92,2.67,2.67,0,0,0-3.4,0,2.39,2.39,0,0,0-.72,1.92v13.21a2.39,2.39,0,0,0,.72,1.92,2.67,2.67,0,0,0,3.4,0,2.36,2.36,0,0,0,.73-1.92V124h-2.85v-3.17h6.43v7.87a6.39,6.39,0,0,1-.52,2.69,5.78,5.78,0,0,1-1.39,1.9,6,6,0,0,1-1.93,1.14,6.38,6.38,0,0,1-2.17.39,6.28,6.28,0,0,1-2.16-.39,5.8,5.8,0,0,1-1.93-1.14,5.51,5.51,0,0,1-1.39-1.9,6.39,6.39,0,0,1-.53-2.69Z"/><path class="cls-5" d="M259.82,109.57h3.58v25h-3.58Z"/><path class="cls-5" d="M285.26,109.57h3l5.59,25h-3.59l-1.05-5.38h-4.88l-1.06,5.38h-3.59Zm1.51,7.21h-.07L285,125.85h3.58Z"/><path class="cls-5" d="M331,109.57h10.68V113h-7.09v7.34h6.18v3.38h-6.18V131h7.09v3.59H331Z"/><path class="cls-5" d="M370,116.78h-3.59V116a3.68,3.68,0,0,0-.58-2.12,2.12,2.12,0,0,0-1.94-.9,2.34,2.34,0,0,0-1.22.28,2.13,2.13,0,0,0-.74.72,3.08,3.08,0,0,0-.37,1,7.9,7.9,0,0,0-.1,1.21,11.27,11.27,0,0,0,.05,1.25,2.17,2.17,0,0,0,.27.88,2,2,0,0,0,.61.65,5.67,5.67,0,0,0,1.11.56l2.74,1.09a6.74,6.74,0,0,1,1.93,1.08,4.13,4.13,0,0,1,1.14,1.43,5.78,5.78,0,0,1,.55,1.9,19.72,19.72,0,0,1,.14,2.44,12.94,12.94,0,0,1-.31,2.94,6.33,6.33,0,0,1-1,2.32,5,5,0,0,1-1.92,1.52,6.73,6.73,0,0,1-2.92.57,6.28,6.28,0,0,1-2.42-.46,6.08,6.08,0,0,1-1.94-1.24,5.93,5.93,0,0,1-1.27-1.89,5.78,5.78,0,0,1-.48-2.35v-1.34h3.58v1.13a2.86,2.86,0,0,0,.59,1.77,2.24,2.24,0,0,0,1.94.79,3.26,3.26,0,0,0,1.43-.26,2,2,0,0,0,.78-.74,3,3,0,0,0,.32-1.18,14.64,14.64,0,0,0,.07-1.54,14.37,14.37,0,0,0-.07-1.62,2.36,2.36,0,0,0-.3-1,1.73,1.73,0,0,0-.63-.63,8.87,8.87,0,0,0-1.07-.53l-2.56-1.06a5.6,5.6,0,0,1-3.11-2.51,8.53,8.53,0,0,1-.79-3.91,9.31,9.31,0,0,1,.38-2.67,6.28,6.28,0,0,1,1.14-2.18,5.39,5.39,0,0,1,1.92-1.46,6.2,6.2,0,0,1,2.7-.54,6,6,0,0,1,4.35,1.79,5.66,5.66,0,0,1,1.2,1.81,5.1,5.1,0,0,1,.43,2Z"/><path class="cls-5" d="M387,109.57h5.38A7.84,7.84,0,0,1,395,110a5.34,5.34,0,0,1,3.31,3.68,14,14,0,0,1,.35,3.56,17.74,17.74,0,0,1-.19,2.83,6.07,6.07,0,0,1-.83,2.2,5.23,5.23,0,0,1-2,1.91,6.56,6.56,0,0,1-3.23.69h-1.82v9.77H387Zm3.59,11.89h1.72a3.88,3.88,0,0,0,1.69-.32,2.06,2.06,0,0,0,.87-.86,3.41,3.41,0,0,0,.34-1.32c0-.51.05-1.09.05-1.73s0-1.13-.05-1.66a4.12,4.12,0,0,0-.32-1.37,2,2,0,0,0-.83-.92,3.21,3.21,0,0,0-1.62-.33h-1.85Z"/><path class="cls-5" d="M415.75,109.57h10.69V113h-7.11v7.34h6.19v3.38h-6.19V131h7.11v3.59H415.75Z"/><path class="cls-5" d="M454.55,129a5.7,5.7,0,0,1-1.66,4.06,6.1,6.1,0,0,1-1.8,1.27,5.4,5.4,0,0,1-2.23.47,8.25,8.25,0,0,1-2.07-.28,5,5,0,0,1-1.9-1,5.14,5.14,0,0,1-1.39-1.81,6.53,6.53,0,0,1-.55-2.84V115.13a6.18,6.18,0,0,1,.43-2.29,5.36,5.36,0,0,1,1.19-1.83,5.89,5.89,0,0,1,1.84-1.21,6.3,6.3,0,0,1,2.38-.43,5.93,5.93,0,0,1,2.28.43,5.52,5.52,0,0,1,1.82,1.23,5.71,5.71,0,0,1,1.23,1.91,6.69,6.69,0,0,1,.43,2.4v1.41H451v-1.2a2.94,2.94,0,0,0-.6-1.83,2,2,0,0,0-1.62-.77,1.81,1.81,0,0,0-1.77.82,4.34,4.34,0,0,0-.45,2.09v12.8a3.35,3.35,0,0,0,.48,1.82,1.89,1.89,0,0,0,1.71.74,2.6,2.6,0,0,0,.75-.12,2,2,0,0,0,1.28-1.18,2.94,2.94,0,0,0,.22-1.23v-1.23h3.58Z"/><path class="cls-5" d="M472,109.57h3.59v25H472Z"/><path class="cls-5" d="M497.43,109.57h3l5.59,25h-3.59l-1.05-5.38h-4.89l-1.06,5.38h-3.58Zm1.51,7.21h-.07l-1.76,9.07h3.59Z"/><path class="cls-5" d="M522.17,109.57h3.59V131h7.09v3.59H522.17Z"/><path class="cls-5" d="M549.68,109.57h3.59v25h-3.59Z"/><path class="cls-5" d="M570,131.44,576.74,113h-6.39v-3.38h10.3v2.85l-6.89,18.8h6.89v3.38H570Z"/><path class="cls-5" d="M601.24,109.57h3l5.59,25h-3.59l-1.05-5.38H600.3l-1.06,5.38h-3.59Zm1.51,7.21h-.07l-1.75,9.07h3.59Z"/><path class="cls-5" d="M626,109.57h5.31a6.1,6.1,0,0,1,4.67,1.71,6.64,6.64,0,0,1,1.63,4.76v11.71c0,2.34-.58,4.06-1.71,5.18a6.73,6.73,0,0,1-4.9,1.67h-5Zm3.59,21.65h1.65a2.69,2.69,0,0,0,2.15-.75,3.7,3.7,0,0,0,.63-2.38V116a3.77,3.77,0,0,0-.6-2.28,2.55,2.55,0,0,0-2.18-.81h-1.65Z"/><path class="cls-5" d="M658.92,109.57h3l5.59,25h-3.58l-1.06-5.38H658l-1.05,5.38h-3.58Zm1.5,7.21h-.07l-1.75,9.07h3.58Z"/></g></g></g></g></svg>