<svg xmlns="http://www.w3.org/2000/svg" viewBox="0 0 368.09 269.6"><defs><style>.cls-1{fill:#b5d8f2;}.cls-2{fill:#d2e6e9;}.cls-3{fill:#fff;}.cls-4{fill:#97c7e0;}</style></defs><title>Ativo 1</title><g id="Camada_2" data-name="Camada 2"><g id="Camada_1-2" data-name="Camada 1"><path class="cls-1" d="M28.06,134.8c-26.75,37-35.9,73.81-20.78,100.44,23.3,41,96.89,44.91,176.76,13.84a389.64,389.64,0,0,1-51.1-24.34C87.63,199,51.24,166.83,28.06,134.8Z"/><path class="cls-1" d="M340,134.8c26.75-37,35.9-73.82,20.78-100.43C337.52-6.64,263.93-10.56,184,20.51a389.84,389.84,0,0,1,51.11,24.35C280.46,70.6,316.85,102.76,340,134.8Z"/><path class="cls-2" d="M340,134.8c-23.18,32-59.57,64.19-104.88,89.94A389.75,389.75,0,0,1,184,249.08c79.89,31.07,153.48,27.15,176.77-13.84C375.93,208.61,366.78,171.78,340,134.8Z"/><path class="cls-2" d="M132.94,44.86A389.74,389.74,0,0,1,184,20.51C104.16-10.56,30.58-6.64,7.28,34.37-7.84,61,1.31,97.81,28.06,134.8,51.24,102.76,87.63,70.6,132.94,44.86Z"/><path class="cls-3" d="M218.45,81c-18,1.19-29.06,10.35-32.25,11.8a9,9,0,0,1-1.8.56c-.13,0-.24,0-.36,0s-.24,0-.36,0a8.16,8.16,0,0,1-1.79-.56c-3.2-1.44-14.27-10.6-32.26-11.78-21.72-1.42-40.15,12.25-38,34.74,2,21,20.29,52.57,30.13,65.93,5.67,7.7,16.78,20.1,24.88,18.83,11.68-1.82,9.59-12.46,10-18,.38-4.72,3.55-8.56,7.38-8.54s7,3.82,7.38,8.53c.45,5.58-1.62,16.21,10.05,18,8.11,1.27,19.21-11.13,24.88-18.84,9.82-13.37,28.06-44.9,30.08-65.95C258.6,93.21,240.16,79.54,218.45,81Z"/><path class="cls-4" d="M235.15,44.86A389.84,389.84,0,0,0,184,20.51a389.74,389.74,0,0,0-51.1,24.35C87.63,70.6,51.24,102.76,28.06,134.8c23.18,32,59.57,64.19,104.88,89.94A389.64,389.64,0,0,0,184,249.08a389.75,389.75,0,0,0,51.11-24.34C280.46,199,316.85,166.83,340,134.8,316.85,102.76,280.46,70.6,235.15,44.86Zm21.31,70.84c-2,21-20.26,52.58-30.08,66-5.67,7.71-16.77,20.11-24.88,18.84-11.67-1.81-9.6-12.44-10.05-18-.38-4.71-3.55-8.53-7.38-8.53s-7,3.82-7.38,8.54c-.45,5.57,1.64,16.21-10,18-8.1,1.27-19.21-11.13-24.88-18.83-9.84-13.36-28.11-44.89-30.13-65.93-2.16-22.49,16.27-36.16,38-34.74,18,1.18,29.06,10.34,32.26,11.78a8.16,8.16,0,0,0,1.79.56c.12,0,.23,0,.36,0s.23,0,.36,0a9,9,0,0,0,1.8-.56c3.19-1.45,14.26-10.61,32.25-11.8C240.16,79.54,258.6,93.21,256.46,115.7Z"/></g></g></svg>