<svg xmlns="http://www.w3.org/2000/svg" viewBox="0 0 95.18 95.18"><defs><style>.cls-1{fill:#fff;}.cls-2{fill:#62a1af;}</style></defs><title>Ativo 4</title><g id="Camada_2" data-name="Camada 2"><g id="Camada_1-2" data-name="Camada 1"><rect class="cls-1" width="95.18" height="95.18" rx="47.59" ry="47.59"/><path class="cls-2" d="M56.87,58.1a10,10,0,0,0-10,9.12A31.09,31.09,0,0,1,27.55,47.88a10,10,0,1,0-10.91-10A40.23,40.23,0,0,0,56.87,78.13a10,10,0,1,0,0-20Z"/><path class="cls-2" d="M67.2,45.29H65.72a2.06,2.06,0,0,1-2.06-2.06v-13a2.06,2.06,0,0,0-2.64-2l-.22.06a2.06,2.06,0,0,1-2.64-2h0a2.05,2.05,0,0,1,1.42-1.95l7-2.3a2.06,2.06,0,0,1,2.71,2v19.2A2.06,2.06,0,0,1,67.2,45.29Z"/></g></g></svg>