<svg xmlns="http://www.w3.org/2000/svg" viewBox="0 0 95.18 95.18"><defs><style>.cls-1{fill:#fff;}.cls-2{fill:#62a1af;}</style></defs><title>Ativo 5</title><g id="Camada_2" data-name="Camada 2"><g id="Camada_1-2" data-name="Camada 1"><rect class="cls-1" width="95.18" height="95.18" rx="47.59" ry="47.59"/><path class="cls-2" d="M56.87,58.1a10,10,0,0,0-10,9.12A31.09,31.09,0,0,1,27.55,47.88a10,10,0,1,0-10.91-10A40.23,40.23,0,0,0,56.87,78.13a10,10,0,1,0,0-20Z"/><path class="cls-2" d="M70.23,44.34H58.58a2,2,0,0,1-2-2v-.6a2,2,0,0,1,.55-1.37l6.65-7q2.66-3,2.66-4.82a3.37,3.37,0,0,0-.63-2.2A2.26,2.26,0,0,0,64,25.62a2.28,2.28,0,0,0-1.92,1,3.62,3.62,0,0,0-.56,1.13,2,2,0,0,1-1.95,1.38H58.48a2,2,0,0,1-1.88-2.65A7.43,7.43,0,0,1,60,22.61a8.45,8.45,0,0,1,4.09-1A8.35,8.35,0,0,1,69.7,23.3a6,6,0,0,1,2,4.81,7,7,0,0,1-.49,2.58,11.61,11.61,0,0,1-1.53,2.63A36,36,0,0,1,66.34,37l-.09.1h0a2,2,0,0,0,1.5,3.29h2.48a2,2,0,0,1,2,2v0A2,2,0,0,1,70.23,44.34Z"/></g></g></svg>